<mxfile host="app.diagrams.net" modified="2024-05-04T13:56:35.173Z" agent="Mozilla/5.0 (Windows NT 10.0; Win64; x64) AppleWebKit/537.36 (KHTML, like Gecko) Chrome/124.0.0.0 Safari/537.36 Edg/124.0.0.0" version="23.1.2" etag="pQveSgMTJ1u360wgislv" type="github">
  <diagram name="第 1 页" id="4FkzA7km_1e033ugajzi">
    <mxGraphModel>
      <root>
        <mxCell id="0" />
        <mxCell id="1" parent="0" />
      </root>
    </mxGraphModel>
  </diagram>
</mxfile>
